<?xml version="1.0" standalone="no"?>
<!DOCTYPE svg PUBLIC "-//W3C//DTD SVG 20010904//EN"
 "http://www.w3.org/TR/2001/REC-SVG-20010904/DTD/svg10.dtd">
<svg version="1.0" xmlns="http://www.w3.org/2000/svg"
 width="372.000000pt" height="372.000000pt" viewBox="0 0 372.000000 372.000000"
 preserveAspectRatio="xMidYMid meet">
<metadata>
Created by potrace 1.14, written by Peter Selinger 2001-2017
</metadata>
<g transform="translate(0.000000,372.000000) scale(0.100000,-0.100000)"
fill="#000000" stroke="none">
<path d="M1864 3278 c-4 -35 -9 -66 -10 -70 -1 -5 -2 -15 -3 -23 -1 -11 -13
-9 -67 11 -73 27 -90 27 -47 -1 15 -10 40 -29 55 -43 l27 -25 -60 -38 c-32
-21 -59 -40 -59 -42 0 -3 32 6 72 19 50 17 74 21 79 13 4 -6 10 -48 15 -93 4
-44 8 -84 9 -88 2 -5 3 -25 4 -45 2 -55 15 -30 18 35 8 185 13 209 51 213 6 1
17 3 22 4 6 1 16 3 23 4 6 1 -8 11 -33 22 -24 11 -46 21 -48 23 -3 4 -6 19
-21 115 -6 35 -12 66 -15 68 -2 2 -7 -24 -12 -59z"/>
<path d="M2180 3213 c-2 -7 -3 -16 -4 -20 -1 -5 -5 -25 -9 -45 -7 -32 -12 -38
-42 -44 -40 -7 -38 -19 5 -27 20 -5 31 -14 34 -29 3 -13 9 -41 14 -63 l9 -40
13 62 c12 60 14 63 46 69 34 6 38 24 6 24 -31 0 -44 17 -57 71 -7 30 -14 48
-15 42z"/>
<path d="M1339 3079 c0 -56 -11 -204 -14 -207 -1 -2 -34 -6 -71 -9 -104 -8
-105 -19 -1 -26 37 -2 69 -6 71 -8 2 -2 8 -24 13 -49 l9 -45 13 53 c11 45 16
52 38 52 13 0 21 4 18 10 -3 6 -15 10 -26 10 -10 0 -19 3 -20 8 0 4 -2 16 -4
27 -2 11 -7 63 -10 115 -6 95 -15 133 -16 69z"/>
<path d="M2715 2947 c-6 -29 -13 -39 -34 -44 l-26 -6 26 -9 c21 -7 28 -18 34
-51 l8 -42 9 42 c7 32 15 44 36 52 15 5 20 10 12 10 -27 2 -42 18 -49 52 l-8
34 -8 -38z"/>
<path d="M2522 2897 c-3 -62 -8 -150 -11 -167 -1 -4 -18 -4 -38 -2 -37 4 -38
4 -20 -15 9 -11 17 -24 17 -30 0 -6 -30 -31 -67 -57 -37 -25 -65 -46 -62 -46
3 0 32 11 65 24 108 43 101 45 110 -26 4 -35 9 -66 10 -70 1 -5 2 -22 3 -40 2
-50 13 -24 17 39 3 32 6 76 9 98 2 22 4 43 4 46 1 4 40 5 89 4 l87 -3 -60 19
c-33 10 -74 21 -90 25 -28 5 -30 9 -34 57 -2 29 -4 63 -6 77 -1 14 -3 51 -3
83 -3 81 -16 71 -20 -16z"/>
<path d="M1780 2886 c0 -18 -7 -29 -22 -35 l-23 -8 23 -7 c20 -7 29 -30 22
-61 -1 -5 2 -6 7 -2 8 9 9 14 12 42 0 9 11 20 24 25 l22 9 -22 0 c-13 1 -24 8
-24 16 -3 28 -4 33 -11 41 -5 4 -8 -5 -8 -20z"/>
<path d="M618 2835 c27 -23 31 -30 20 -42 -10 -13 -9 -15 7 -11 16 3 22 -5 32
-37 l11 -40 1 41 c1 43 11 53 54 55 14 1 8 5 -15 11 -27 7 -38 15 -38 29 0 10
-4 19 -10 19 -5 0 -10 -7 -10 -15 0 -18 1 -18 -46 1 l-39 15 33 -26z"/>
<path d="M1120 2850 c-9 -6 -10 -10 -3 -10 6 0 15 5 18 10 8 12 4 12 -15 0z"/>
<path d="M1150 2850 c0 -5 5 -10 10 -10 6 0 10 5 10 10 0 6 -4 10 -10 10 -5 0
-10 -4 -10 -10z"/>
<path d="M789 2754 c-1 -16 -2 -45 -4 -64 -1 -27 -16 -435 -18 -507 0 -7 -2
-13 -5 -13 -4 0 -238 126 -302 163 -52 30 -29 11 128 -107 78 -59 140 -111
138 -115 -3 -4 -57 -31 -120 -60 -64 -30 -115 -55 -114 -57 2 -1 62 15 133 36
72 21 133 35 136 31 3 -3 16 -66 29 -139 13 -72 25 -131 27 -129 1 2 6 62 9
133 3 71 9 132 13 137 4 4 45 0 90 -8 46 -9 85 -15 87 -13 1 2 -30 19 -71 38
-41 19 -75 40 -75 45 0 6 21 33 47 60 76 82 109 121 88 104 -11 -9 -53 -42
-93 -73 -40 -32 -75 -56 -77 -54 -2 2 -6 53 -10 113 -3 61 -7 137 -10 170 -2
33 -7 121 -11 195 -6 127 -13 179 -15 114z"/>
<path d="M1708 2700 c-89 -20 -187 -56 -200 -74 -4 -6 -8 -7 -8 -2 0 4 -8 0
-17 -11 -10 -10 -13 -12 -8 -4 9 12 7 12 -13 2 -13 -7 -21 -15 -18 -19 4 -3
-8 -21 -26 -39 -33 -34 -29 -44 7 -17 11 8 46 27 78 41 31 14 57 30 57 35 0 5
4 6 10 3 17 -11 94 16 125 43 22 20 25 21 11 5 l-19 -23 29 0 c16 0 34 4 39 8
17 11 57 72 48 71 -4 0 -47 -9 -95 -19z m-98 -54 c0 -2 -8 -10 -17 -17 -16
-13 -17 -12 -4 4 13 16 21 21 21 13z"/>
<path d="M1799 2686 l-19 -31 31 -3 c19 -2 35 2 40 10 7 10 9 10 9 1 0 -8 14
-13 35 -13 35 0 42 7 28 26 -5 5 -1 2 8 -7 16 -17 89 -43 89 -31 0 3 -8 15
-17 26 -10 12 -4 9 12 -6 18 -16 53 -33 85 -40 30 -7 91 -32 134 -55 44 -24
82 -43 85 -43 3 0 -10 16 -29 35 -19 19 -32 35 -29 35 2 0 58 -55 124 -122 66
-67 105 -109 86 -93 -18 17 -32 25 -30 20 10 -29 75 -150 81 -153 4 -2 4 -10
1 -19 -4 -10 -2 -14 4 -10 6 4 19 -3 29 -16 l19 -22 -22 19 c-20 16 -23 17
-23 3 0 -26 20 -70 43 -97 l22 -25 -22 19 -22 18 6 -38 c4 -24 17 -49 33 -64
14 -14 18 -19 8 -11 -10 8 -21 11 -25 8 -12 -13 -9 -59 4 -64 11 -4 11 -7 0
-17 -8 -7 -11 -21 -8 -38 l6 -28 29 23 c25 20 29 29 27 73 0 27 -3 58 -5 69
-2 11 -7 40 -11 65 -9 56 -64 200 -77 200 -5 0 -6 5 -3 10 3 6 1 10 -4 10 -6
0 -10 6 -9 13 2 6 -2 11 -9 10 -7 -2 -10 4 -7 12 7 18 -47 89 -120 158 -52 48
-147 117 -169 121 -7 1 -35 14 -63 28 -27 15 -68 30 -90 34 -21 5 -41 9 -44 9
-34 9 -87 16 -139 18 -61 4 -64 3 -82 -27z m322 -53 c13 -16 12 -17 -3 -4 -10
7 -18 15 -18 17 0 8 8 3 21 -13z"/>
<path d="M1776 2626 c-8 -6 -20 -31 -26 -56 -6 -25 -13 -53 -16 -62 -5 -15 0
-17 28 -14 18 3 44 5 58 5 24 1 26 4 28 66 2 36 -1 66 -5 66 -36 6 -55 5 -67
-5z"/>
<path d="M1860 2569 l0 -67 53 -4 c28 -3 55 -3 59 -1 7 4 -15 91 -30 119 -7
12 -22 19 -46 19 l-36 1 0 -67z"/>
<path d="M1692 2623 c-15 -3 -37 -26 -63 -66 -45 -72 -49 -92 -16 -84 12 3 39
9 59 12 35 7 38 11 53 61 8 29 18 60 21 69 6 15 -5 17 -54 8z"/>
<path d="M1960 2624 c0 -4 10 -36 21 -70 l21 -63 55 -11 c30 -7 57 -10 59 -7
7 7 -39 96 -62 124 -18 20 -94 42 -94 27z"/>
<path d="M1581 2593 c-24 -9 -55 -28 -67 -42 -28 -32 -88 -130 -83 -135 2 -1
32 8 66 21 56 22 65 29 94 81 17 31 38 65 47 75 19 22 5 22 -57 0z"/>
<path d="M2070 2607 c0 -4 13 -28 29 -55 16 -27 32 -58 35 -69 4 -13 29 -28
73 -44 37 -13 71 -25 75 -27 12 -5 -32 69 -72 120 -24 32 -47 50 -74 58 -21 6
-44 14 -52 17 -8 3 -14 3 -14 0z"/>
<path d="M1383 2557 c-23 -17 -42 -38 -43 -44 0 -22 15 -14 60 32 52 53 43 59
-17 12z"/>
<path d="M1304 2503 c-4 -43 -9 -81 -10 -85 -1 -5 -2 -13 -3 -20 0 -6 -11 -2
-24 10 -32 30 -43 28 -18 -5 12 -14 20 -28 18 -30 -2 -2 -26 -5 -53 -8 -63 -5
-128 -16 -133 -21 -2 -2 13 -4 35 -5 21 0 48 -2 59 -4 11 -2 37 -5 58 -7 43
-2 44 -6 17 -36 -25 -26 -27 -41 -2 -19 24 22 44 25 47 7 1 -8 5 -46 9 -84 3
-38 8 -71 10 -74 4 -3 16 74 21 140 4 43 12 45 47 12 l32 -29 -27 37 -28 37
23 5 c32 7 97 15 133 16 50 2 1 17 -79 24 -38 3 -71 8 -73 10 -2 2 9 19 24 37
l28 34 -37 -28 -37 -27 -5 42 c-3 24 -8 65 -11 92 -3 27 -7 51 -9 53 -2 3 -8
-31 -12 -74z"/>
<path d="M1455 2540 c-27 -16 -56 -27 -63 -25 -7 3 -10 1 -7 -5 3 -5 -4 -14
-15 -20 -13 -7 -20 -21 -20 -41 l0 -30 61 47 c48 38 113 107 97 103 -2 0 -25
-14 -53 -29z"/>
<path d="M2222 2535 c14 -14 40 -53 59 -85 21 -36 45 -64 64 -73 16 -8 51 -31
78 -51 26 -20 49 -36 52 -36 3 0 -7 24 -22 53 -37 69 -38 71 -23 62 9 -5 11
-4 6 4 -4 6 -11 9 -16 6 -4 -3 -15 7 -25 21 -17 27 -134 106 -174 119 l-24 7
25 -27z"/>
<path d="M2660 2510 c0 -12 -9 -24 -22 -29 l-23 -8 23 -7 c12 -4 22 -15 22
-26 0 -10 5 -22 10 -25 6 -3 10 3 10 14 0 11 9 26 20 34 l21 14 -21 6 c-12 3
-20 13 -20 26 0 12 -4 21 -10 21 -5 0 -10 -9 -10 -20z"/>
<path d="M1740 2468 c-11 -4 -20 -15 -21 -25 0 -10 -2 -29 -5 -43 -2 -14 -6
-37 -8 -52 l-4 -27 71 3 70 3 1 74 1 74 -42 0 c-24 0 -52 -3 -63 -7z"/>
<path d="M1866 2471 c-6 -11 0 -130 7 -137 3 -3 35 -8 71 -10 59 -4 64 -2 61
15 -2 10 -6 42 -10 72 -4 30 -8 55 -10 57 -6 7 -115 9 -119 3z"/>
<path d="M1631 2456 c-48 -10 -56 -15 -68 -44 -17 -41 -13 -47 29 -50 18 -2
45 -4 60 -6 25 -3 28 1 38 47 6 28 7 53 3 57 -5 4 -32 2 -62 -4z"/>
<path d="M2015 2460 c-5 -7 15 -132 21 -139 2 -2 35 -9 73 -16 l70 -12 -6 30
c-3 17 -13 51 -22 75 -16 44 -18 46 -74 57 -32 6 -60 8 -62 5z"/>
<path d="M1266 2445 c-3 -8 -1 -15 4 -15 13 0 22 18 11 24 -5 3 -11 -1 -15 -9z"/>
<path d="M1475 2409 c-38 -15 -65 -28 -60 -29 6 0 33 -3 61 -6 51 -6 51 -6 63
27 6 18 10 33 9 34 -2 1 -34 -11 -73 -26z"/>
<path d="M2160 2429 c1 -2 11 -35 24 -73 l22 -68 72 -23 c40 -13 72 -20 71
-16 0 3 -10 33 -22 66 -19 53 -27 63 -67 82 -43 21 -101 39 -100 32z"/>
<path d="M1220 2389 c0 -5 5 -7 10 -4 6 3 10 8 10 11 0 2 -4 4 -10 4 -5 0 -10
-5 -10 -11z"/>
<path d="M2332 2359 c3 -8 14 -40 24 -71 15 -45 25 -60 51 -72 52 -25 115 -67
110 -73 -3 -3 -18 4 -34 14 -15 11 -43 27 -60 36 -32 15 -33 15 -32 -6 0 -12
3 -39 7 -61 7 -37 9 -39 77 -62 39 -13 71 -24 72 -24 3 0 -7 53 -14 75 -4 11
-8 27 -9 35 -13 74 -29 104 -80 144 -71 56 -119 83 -112 65z"/>
<path d="M3145 2358 c-2 -7 -7 -31 -12 -52 -7 -33 -14 -41 -43 -52 l-35 -12
33 -7 c26 -6 62 -41 54 -52 -1 -2 -2 -19 -2 -40 0 -46 10 -37 25 24 10 39 18
51 46 65 l34 16 -37 7 c-35 7 -38 10 -45 54 -4 25 -6 49 -5 54 3 12 -8 8 -13
-5z"/>
<path d="M1565 2330 c-18 -3 -31 -12 -33 -24 -3 -13 1 -17 15 -12 23 7 82 18
107 20 11 0 21 7 24 14 4 13 -47 14 -113 2z"/>
<path d="M1499 2326 c-2 -2 -26 -7 -54 -9 -27 -3 -51 -6 -53 -6 -2 -1 5 -12
15 -25 17 -22 19 -23 60 -9 31 11 43 20 43 34 0 19 -3 23 -11 15z"/>
<path d="M1174 2304 c-10 -8 -13 -12 -6 -9 11 6 12 4 3 -11 -7 -11 -20 -33
-31 -51 -23 -39 -45 -116 -55 -193 -17 -138 6 -306 57 -402 12 -24 21 -46 20
-51 -3 -11 83 -136 123 -179 71 -76 220 -184 200 -146 -3 7 1 4 10 -7 9 -11
19 -19 23 -19 4 1 24 -7 44 -17 47 -24 165 -52 180 -43 6 4 8 3 4 -4 -4 -6 1
-11 11 -11 10 0 50 0 88 0 122 -1 231 21 320 66 28 14 70 35 94 47 53 26 167
129 215 195 20 27 36 52 36 55 0 4 -51 -44 -112 -106 -62 -63 -122 -120 -133
-128 -12 -8 0 4 25 27 25 23 40 42 33 43 -6 0 -14 -4 -17 -9 -3 -4 -36 -23
-73 -40 -38 -18 -79 -42 -93 -54 -14 -13 -19 -15 -11 -5 12 17 10 17 -32 4
-25 -8 -48 -11 -51 -8 -3 2 -8 -3 -12 -12 -3 -9 -10 -16 -16 -16 -5 0 -7 4 -4
8 3 5 -9 7 -27 4 -20 -2 -43 -16 -60 -35 -20 -22 -24 -24 -13 -7 9 13 16 28
16 31 0 11 -64 -2 -72 -14 -6 -9 -8 -9 -8 -1 0 7 -16 14 -35 16 -40 5 -41 2
-19 -32 l16 -25 -20 23 c-11 12 -22 26 -24 31 -2 4 -20 11 -41 14 -22 3 -35 2
-32 -4 10 -14 -11 -11 -24 5 -6 8 -24 16 -39 18 -15 3 -36 9 -47 13 -18 8 -19
7 -5 -11 12 -16 10 -16 -10 2 -25 22 -162 94 -177 94 -5 0 12 -19 37 -41 31
-28 34 -33 10 -15 -36 27 -189 181 -225 227 -11 14 -3 7 17 -15 21 -23 38 -38
38 -34 0 15 -73 153 -94 178 -18 21 -18 22 -2 10 18 -14 19 -13 12 5 -15 35
-28 89 -33 130 -3 29 -14 48 -36 68 -22 20 -24 24 -7 13 13 -9 27 -16 30 -16
12 0 1 63 -12 71 -10 7 -10 9 0 9 7 0 12 14 12 36 l0 36 -27 -17 c-26 -15 -25
-14 4 12 19 17 33 40 35 61 5 37 2 38 -26 15 -12 -10 -5 -1 13 20 19 20 32 37
28 37 -3 0 -2 11 3 25 12 31 4 32 -28 3 -22 -21 -24 -21 -14 -3 6 11 22 32 35
46 62 65 71 142 11 93z m835 -1097 c-2 -1 -13 -9 -24 -17 -19 -14 -19 -14 -6
3 7 9 18 17 24 17 6 0 8 -1 6 -3z"/>
<path d="M1872 2303 c-4 -2 -6 -39 -4 -83 l4 -81 76 3 c70 3 77 5 75 23 -1 11
-5 46 -8 77 l-6 56 -65 4 c-35 2 -68 2 -72 1z"/>
<path d="M1699 2286 c0 -6 -3 -41 -8 -78 l-7 -68 78 0 78 0 1 28 c2 29 1 112
0 125 -2 13 -141 6 -142 -7z"/>
<path d="M1610 2285 c-8 -2 -31 -6 -51 -10 -35 -5 -37 -8 -44 -53 -17 -110
-20 -102 27 -96 23 2 57 5 76 6 18 1 34 4 36 7 2 3 7 39 10 79 8 78 6 79 -54
67z"/>
<path d="M2046 2218 c3 -40 8 -75 11 -77 4 -5 12 -6 96 -15 l58 -6 -5 33 c-4
17 -9 51 -12 73 -6 41 -7 42 -62 53 -97 19 -94 22 -86 -61z"/>
<path d="M1235 2242 c-30 -26 -60 -80 -51 -89 5 -5 87 46 97 61 4 5 5 16 4 25
-2 9 -4 19 -4 24 -2 13 -15 7 -46 -21z"/>
<path d="M1360 2249 c0 -5 5 -7 10 -4 6 3 10 8 10 11 0 2 -4 4 -10 4 -5 0 -10
-5 -10 -11z"/>
<path d="M1453 2252 c-9 -6 -6 -16 12 -37 23 -28 24 -28 25 -8 0 12 3 28 6 37
7 17 -21 22 -43 8z"/>
<path d="M2211 2253 c2 -29 25 -132 29 -133 3 0 32 -7 65 -15 33 -8 63 -14 68
-15 10 0 9 20 -4 79 -10 50 -10 50 -72 70 -65 22 -87 26 -86 14z"/>
<path d="M1373 2227 c-21 -9 -27 -23 -37 -99 -4 -25 -2 -35 7 -34 31 6 113 20
122 21 6 0 11 13 13 29 3 22 -3 35 -25 53 -44 37 -56 41 -80 30z"/>
<path d="M2903 2207 c0 -7 -3 -48 -7 -92 -3 -44 -9 -114 -12 -156 -7 -95 -9
-107 -16 -115 -4 -3 -42 18 -85 48 -100 70 -113 77 -87 47 11 -13 47 -55 79
-92 33 -39 54 -71 49 -76 -5 -5 -42 -26 -81 -47 -40 -21 -73 -42 -73 -47 0 -4
4 -6 10 -2 12 7 183 45 187 41 6 -6 11 -38 17 -116 4 -41 9 -95 11 -120 3 -25
7 -70 10 -100 30 -303 35 -330 35 -189 1 77 6 246 14 444 l3 80 29 -3 c16 -2
78 -15 138 -28 60 -13 114 -24 120 -24 5 0 -45 27 -113 60 -68 32 -126 62
-129 65 -3 2 21 44 53 92 l58 88 -61 -54 c-34 -29 -65 -57 -68 -62 -3 -5 -13
-13 -23 -18 -14 -8 -17 -5 -17 12 -1 29 -15 204 -20 242 -2 17 -4 52 -5 78 -1
26 -5 50 -9 52 -4 2 -7 -1 -7 -8z"/>
<path d="M1225 2157 c-42 -27 -51 -38 -56 -72 -4 -22 -6 -41 -5 -42 1 -1 32 7
69 19 l67 22 -4 41 c-2 22 -5 46 -5 53 -1 18 -11 15 -66 -21z"/>
<path d="M1870 2033 l0 -83 81 0 80 0 -2 76 c-1 45 -6 77 -13 79 -6 2 -41 6
-78 7 l-68 4 0 -83z"/>
<path d="M1560 2099 c-25 -4 -48 -5 -51 -3 -10 5 -15 -23 -18 -88 l-2 -58 80
0 79 0 4 71 c2 39 1 74 -2 78 -6 9 -29 9 -90 0z"/>
<path d="M1687 2102 c-3 -4 -5 -40 -6 -79 l0 -72 79 0 80 1 0 79 0 79 -74 0
c-41 0 -77 -3 -79 -8z"/>
<path d="M2063 2102 c-5 -4 -8 -27 -7 -52 2 -25 3 -57 3 -72 l1 -28 81 0 80 0
-2 58 c-4 88 -4 88 -59 91 -27 1 -57 4 -68 6 -10 2 -23 0 -29 -3z"/>
<path d="M1384 2078 c-35 -6 -53 -15 -56 -26 -7 -27 -4 -97 5 -99 4 -2 35 -3
70 -3 l62 0 3 70 c4 79 9 75 -84 58z"/>
<path d="M2241 2020 l2 -70 72 0 c81 0 85 3 75 74 -5 43 -14 48 -106 61 l-45
6 2 -71z"/>
<path d="M1220 2042 c-49 -16 -55 -21 -61 -52 -4 -19 -5 -38 -3 -42 3 -4 34
-6 69 -5 50 1 65 5 66 17 0 8 2 34 5 58 6 48 5 49 -76 24z"/>
<path d="M2413 2011 c2 -28 7 -54 11 -58 4 -4 34 -9 67 -10 l60 -3 -3 41 c-3
38 -6 43 -38 54 -20 7 -50 16 -68 20 l-32 7 3 -51z"/>
<path d="M3345 1923 c-7 -21 -9 -22 -44 -8 l-36 15 29 -26 c23 -21 26 -28 15
-35 -11 -7 -9 -9 7 -9 17 0 23 -9 31 -42 l11 -43 1 48 c1 46 2 47 34 48 l32 0
-32 16 c-18 9 -34 26 -36 37 -4 21 -5 21 -12 -1z"/>
<path d="M1160 1890 l0 -39 58 -16 c31 -9 63 -18 71 -21 10 -3 12 7 7 48 -3
29 -6 56 -6 61 0 4 -29 7 -65 7 l-65 0 0 -40z"/>
<path d="M1318 1921 c-1 -6 -1 -33 0 -60 4 -55 8 -58 85 -67 29 -4 56 -9 60
-11 5 -3 7 27 6 66 -2 39 -8 72 -14 74 -25 9 -133 7 -137 -2z"/>
<path d="M1492 1856 c3 -70 4 -71 33 -77 55 -12 125 -10 126 4 2 30 -3 132 -7
136 -2 2 -38 5 -79 6 l-76 1 3 -70z"/>
<path d="M1684 1918 c-6 -9 -3 -127 3 -143 2 -5 37 -11 78 -13 l75 -3 0 81 c0
69 -2 80 -17 81 -70 4 -136 3 -139 -3z"/>
<path d="M1893 1922 c-22 -3 -23 -8 -23 -84 l0 -80 78 5 c42 3 78 6 78 6 1 1
2 36 3 79 l2 77 -58 0 c-32 0 -68 -1 -80 -3z"/>
<path d="M2088 1922 c-25 -3 -28 -7 -29 -45 0 -23 -2 -57 -4 -76 l-3 -33 75 5
c41 3 77 8 80 10 3 3 7 36 10 74 l5 68 -54 0 c-29 0 -65 -1 -80 -3z"/>
<path d="M2250 1920 c-5 -3 -9 -28 -9 -55 1 -28 -1 -57 -3 -65 -1 -8 2 -14 7
-14 6 1 33 5 62 8 80 9 81 10 85 77 l3 60 -68 -3 c-37 -1 -72 -5 -77 -8z"/>
<path d="M2419 1928 c0 -2 -2 -29 -5 -60 -4 -45 -2 -57 8 -54 7 3 39 12 71 21
l57 16 0 39 0 40 -65 0 c-36 0 -65 -1 -66 -2z"/>
<path d="M930 1888 c0 -16 0 -31 -1 -35 -2 -17 -23 -33 -43 -34 -19 0 -19 -1
4 -12 35 -15 33 -13 40 -60 l7 -42 12 47 c10 37 19 48 39 54 24 6 24 8 7 12
-30 6 -45 22 -45 46 0 11 -5 28 -10 36 -8 12 -10 9 -10 -12z"/>
<path d="M2593 1867 c-20 -13 -33 -31 -33 -44 0 -12 -3 -30 -7 -40 -4 -13 3
-10 28 12 l34 30 -32 -35 c-32 -35 -44 -60 -57 -115 l-7 -30 27 30 26 30 -26
-35 c-14 -19 -42 -66 -62 -105 -19 -38 -40 -75 -46 -82 -6 -8 -9 -16 -6 -19 3
-3 20 13 38 36 17 22 36 38 40 35 5 -3 14 5 21 17 10 20 10 22 -2 13 -8 -5 -7
-2 3 7 11 9 19 21 20 25 0 4 9 25 19 45 24 48 71 250 57 247 -1 0 -18 -10 -35
-22z"/>
<path d="M1165 1806 c2 -13 6 -33 9 -43 6 -19 92 -76 132 -87 21 -6 21 -6 8
50 -7 31 -15 58 -18 61 -7 8 -108 42 -122 43 -6 0 -10 -11 -9 -24z"/>
<path d="M2463 1807 c-55 -18 -63 -24 -63 -46 0 -15 -4 -41 -9 -59 -7 -23 -6
-32 2 -32 9 0 120 61 134 74 1 1 6 21 11 44 11 49 13 49 -75 19z"/>
<path d="M1330 1759 c0 -11 5 -40 11 -64 12 -46 11 -46 107 -70 l54 -14 -6 23
c-3 13 -8 41 -11 62 -9 61 -10 61 -78 73 -81 14 -77 15 -77 -10z"/>
<path d="M2290 1766 l-54 -11 -12 -65 c-7 -36 -13 -68 -13 -72 -2 -17 137 30
148 50 5 10 12 38 16 65 8 54 10 53 -85 33z"/>
<path d="M1506 1704 c15 -104 16 -104 122 -117 l42 -5 -6 71 c-3 40 -9 75 -12
79 -4 4 -40 10 -80 13 l-74 7 8 -48z"/>
<path d="M2083 1742 c-28 -3 -33 -7 -33 -30 0 -15 -3 -51 -6 -80 l-7 -52 39 6
c112 17 107 14 121 79 7 33 12 66 13 73 0 13 -28 13 -127 4z"/>
<path d="M1691 1676 c2 -98 3 -101 82 -104 75 -4 69 -11 69 91 0 33 -2 60 -4
62 -2 2 -36 5 -75 8 l-73 5 1 -62z"/>
<path d="M1869 1710 c0 -14 -1 -51 -2 -83 l-2 -59 68 5 c38 3 71 8 75 11 3 4
6 39 6 79 l1 72 -72 0 c-71 0 -73 -1 -74 -25z"/>
<path d="M1180 1728 c0 -3 7 -27 16 -54 10 -30 30 -61 53 -82 41 -37 120 -86
128 -79 2 3 -2 18 -10 34 -8 15 -18 43 -22 61 -5 26 -17 38 -53 57 -26 13 -62
34 -79 46 -18 11 -33 19 -33 17z"/>
<path d="M2451 1684 c-72 -42 -76 -46 -97 -106 -13 -34 -21 -64 -19 -67 3 -2
31 14 62 35 32 21 63 41 68 42 20 7 -52 -49 -107 -84 -32 -19 -58 -40 -58 -46
0 -6 -22 -42 -49 -79 l-49 -67 35 14 c82 35 143 86 188 159 24 39 46 80 48 92
1 12 8 27 14 35 9 11 46 121 40 117 -1 -1 -35 -21 -76 -45z"/>
<path d="M1360 1626 c0 -14 44 -122 54 -132 12 -13 127 -57 132 -51 2 2 -7 35
-19 73 l-24 69 -54 18 c-30 9 -62 20 -71 23 -10 3 -18 3 -18 0z"/>
<path d="M2269 1607 l-66 -20 -21 -71 c-11 -39 -19 -72 -18 -74 6 -5 120 40
132 52 10 9 54 117 54 131 0 7 -6 5 -81 -18z"/>
<path d="M1230 1586 c0 -9 42 -85 75 -135 26 -38 61 -66 135 -108 65 -36 71
-34 35 12 -18 25 -43 62 -55 83 -13 24 -42 50 -75 70 -30 18 -60 38 -67 45
-26 24 -48 39 -48 33z"/>
<path d="M1530 1575 c0 -4 9 -37 20 -74 l21 -68 50 -11 c75 -18 82 -16 75 16
-3 15 -9 45 -12 67 -7 51 -10 54 -69 60 -28 3 -58 8 -67 11 -10 3 -18 2 -18
-1z"/>
<path d="M2089 1567 c-57 -10 -57 -10 -62 -51 -4 -23 -9 -56 -13 -73 -7 -38
-3 -39 74 -23 52 12 50 9 88 143 6 19 0 20 -87 4z"/>
<path d="M530 1523 c-13 -41 -15 -43 -54 -44 -23 0 -61 -2 -86 -4 -25 -1 -65
-3 -89 -4 -69 -2 -44 -9 54 -16 172 -13 162 -9 171 -77 7 -54 19 -49 27 13 6
52 13 59 55 60 20 0 55 4 77 8 37 8 38 9 10 11 -16 1 -39 3 -50 5 -11 2 -33 5
-50 7 -26 3 -32 9 -41 43 l-11 40 -13 -42z"/>
<path d="M1704 1533 c3 -10 8 -40 11 -68 3 -27 8 -52 13 -56 4 -4 32 -9 62
-10 l55 -3 -1 74 -1 75 -73 3 c-65 3 -71 1 -66 -15z"/>
<path d="M1868 1533 c-3 -10 -4 -43 -4 -73 l2 -55 59 0 59 0 7 35 c4 19 9 52
12 73 l6 37 -68 0 c-57 0 -69 -3 -73 -17z"/>
<path d="M2709 1499 c-2 -72 -6 -105 -13 -118 -4 -6 -32 -11 -63 -11 -69 0
-64 -9 8 -17 30 -3 56 -7 58 -9 2 -2 7 -21 11 -41 l7 -38 11 41 c8 29 19 44
35 49 22 6 21 7 -5 17 -19 6 -28 17 -28 31 -1 39 -12 132 -16 136 -2 2 -5 -16
-5 -40z"/>
<path d="M1430 1453 c0 -5 21 -40 48 -79 47 -69 73 -89 131 -100 l31 -7 -37
72 c-35 65 -42 73 -88 90 -27 11 -58 22 -67 26 -10 4 -18 3 -18 -2z"/>
<path d="M2206 1435 c-54 -20 -61 -26 -87 -78 -16 -30 -33 -58 -39 -62 -5 -3
-10 -12 -10 -20 0 -11 8 -11 48 2 26 9 53 21 61 27 15 12 89 118 97 141 8 19
3 18 -70 -10z"/>
<path d="M920 1410 c-1 -3 -4 -16 -6 -30 -7 -36 -17 -42 -50 -29 -16 6 -42 15
-59 20 l-30 8 27 -20 c14 -11 37 -28 50 -38 l23 -19 -25 -21 -25 -20 37 6 c41
6 36 13 57 -87 7 -36 9 -39 11 -17 1 15 4 32 5 37 1 6 3 25 4 44 1 33 3 35 54
43 l52 10 -50 15 c-47 14 -51 18 -62 59 -6 24 -12 42 -13 39z"/>
<path d="M1590 1398 c0 -12 39 -87 61 -119 13 -18 30 -28 55 -31 19 -2 37 -1
39 2 2 3 -6 35 -18 70 l-22 63 -58 12 c-31 6 -57 8 -57 3z"/>
<path d="M2065 1397 c-22 -5 -45 -11 -51 -12 -10 -3 -54 -114 -54 -136 0 -4
16 -3 34 1 19 4 37 6 39 4 5 -5 46 56 71 105 22 41 13 50 -39 38z"/>
<path d="M1730 1374 c0 -12 30 -109 38 -120 4 -6 24 -14 45 -17 l39 -6 -4 71
-3 71 -57 4 c-32 2 -58 1 -58 -3z"/>
<path d="M1860 1309 c0 -36 2 -68 5 -70 2 -3 20 -3 40 -1 33 4 36 7 51 61 9
31 19 62 22 69 3 10 -10 12 -57 10 l-61 -3 0 -66z"/>
<path d="M3110 1233 c-1 -7 -4 -17 -5 -23 -1 -5 -3 -16 -4 -24 0 -8 -13 -19
-28 -24 -16 -6 -21 -11 -13 -11 27 -2 39 -16 45 -51 8 -47 12 -48 20 -1 5 31
12 42 33 49 l27 9 -27 6 c-19 5 -28 16 -36 44 -5 21 -11 32 -12 26z"/>
<path d="M1396 1135 c-10 -52 -19 -95 -21 -95 -1 0 -73 27 -159 59 -86 32
-156 57 -156 56 0 -2 39 -32 88 -66 48 -35 106 -77 129 -95 l42 -31 -54 -44
c-30 -24 -55 -46 -55 -50 0 -3 36 2 79 11 l79 18 7 -72 c4 -39 9 -78 10 -86 2
-8 6 -44 10 -80 12 -115 15 -144 22 -195 3 -27 6 -58 5 -67 0 -10 3 -18 9 -18
5 0 9 26 10 58 0 31 2 75 4 97 6 91 18 341 17 358 0 9 0 17 1 18 1 0 22 3 47
6 25 3 79 11 120 17 l75 12 -120 40 -120 39 -22 98 c-12 55 -23 101 -25 103
-3 2 -12 -39 -22 -91z"/>
<path d="M2419 1203 c-1 -13 -2 -26 -3 -30 -2 -5 -6 -29 -10 -55 -9 -51 -10
-52 -90 -63 -93 -13 -93 -21 -3 -34 l86 -13 6 -41 c4 -23 8 -51 10 -62 2 -11
4 -31 4 -44 1 -40 12 -17 30 66 l17 78 45 7 c58 11 97 16 133 17 37 1 29 10
-15 16 -102 13 -155 19 -161 17 -7 -2 -11 17 -24 93 -9 52 -23 79 -25 48z"/>
<path d="M717 1100 c-4 -19 -10 -60 -13 -90 -3 -30 -7 -56 -8 -57 -1 -2 -24 6
-52 16 -94 35 -101 34 -41 -9 31 -23 57 -45 57 -49 0 -5 -27 -25 -60 -45 -33
-21 -60 -39 -60 -40 0 -2 35 7 78 20 42 12 78 21 79 20 1 -1 5 -24 8 -51 3
-28 8 -66 10 -85 3 -19 8 -62 11 -95 7 -73 14 -84 14 -24 1 100 13 245 22 257
6 6 20 12 32 12 47 0 48 17 2 34 -29 11 -46 24 -46 34 -1 9 -7 55 -14 102 -11
75 -13 81 -19 50z"/>
<path d="M888 1014 c-5 -4 -8 -16 -8 -26 0 -10 -10 -22 -22 -27 l-22 -8 22
-12 c14 -7 22 -21 22 -36 0 -35 16 -31 24 5 4 23 11 30 28 30 23 1 23 1 -2 15
-14 7 -27 25 -30 40 -3 15 -8 23 -12 19z"/>
<path d="M1770 953 c0 -12 -9 -31 -20 -41 -21 -19 -21 -19 -1 -25 10 -2 21
-15 23 -28 4 -24 4 -24 16 4 10 22 18 27 48 27 21 0 34 3 30 8 -8 8 -14 9 -51
11 -17 1 -25 7 -25 19 0 9 -5 24 -10 32 -8 12 -10 11 -10 -7z"/>
<path d="M2166 779 c-3 -17 -6 -44 -6 -59 l0 -28 -52 19 c-54 20 -54 18 7 -28
l20 -14 -20 -14 c-62 -43 -63 -45 -10 -30 27 8 50 13 51 12 4 -4 13 -83 14
-114 0 -18 5 -33 10 -33 6 0 9 3 9 8 -1 4 -1 37 0 74 1 67 1 67 33 76 l32 8
-32 13 c-18 7 -32 21 -33 30 0 25 -11 106 -14 109 -1 1 -5 -12 -9 -29z"/>
<path d="M1431 354 c0 -11 3 -14 6 -6 3 7 2 16 -1 19 -3 4 -6 -2 -5 -13z"/>
</g>
</svg>
